<?xml version="1.0" encoding="utf-8"?>
<!-- Generator: Adobe Illustrator 27.9.0, SVG Export Plug-In . SVG Version: 6.00 Build 0)  -->
<svg version="1.1" id="Layer_1" xmlns="http://www.w3.org/2000/svg" xmlns:xlink="http://www.w3.org/1999/xlink" x="0px" y="0px"
	 viewBox="0 0 127.64 54.47" style="enable-background:new 0 0 127.64 54.47;" xml:space="preserve">
<style type="text/css">
	.st0{fill:#E1251B;}
	.st1{fill:#00833E;}
	.st2{fill:#238DC1;}
	.st3{fill:#F7BE00;}
</style>
<path class="st0" d="M8.37,38.07c0,4.8,2.96,7.92,8.15,7.92c5.19,0,8.12-3.12,8.12-7.92v-23h8.12v23.75
	c0,8.28-6.32,13.89-16.24,13.89c-9.93,0-16.27-5.61-16.27-13.89V15.07h8.12V38.07z"/>
<path class="st1" d="M65.65,28.76c0-4.8-2.96-7.92-8.15-7.92c-5.19,0-8.12,3.12-8.12,7.92v23h-8.12V28.01
	c0-8.28,6.32-13.89,16.24-13.89c9.92,0,16.27,5.61,16.27,13.89v23.75h-8.12V28.76z"/>
<path class="st2" d="M81.69,51.76V15.08h8.12v36.68H81.69z"/>
<path class="st2" d="M81.1,6.21c0-2.48,2.12-4.44,4.66-4.44c2.54,0,4.63,1.96,4.63,4.44c0,2.46-2.09,4.42-4.63,4.42
	C83.22,10.62,81.1,8.66,81.1,6.21z"/>
<path class="st3" d="M116.24,30.38l-4.68-0.94c-4.55-0.94-6.4-2.29-6.4-4.61c0-2.88,2.69-4.74,6.75-4.74c3.91,0,6.76,1.95,7.15,4.94
	c0.03,0.21,0.06,0.55,0.06,0.86h7.59c0,0,0-0.42,0-0.76v-0.08c-0.24-6.5-6.29-11.01-14.85-11.01c-8.95,0-14.85,4.54-14.85,11.39
	c0,5.58,3.47,9.02,10.54,10.45l5.05,1.05c4.76,0.99,6.69,2.4,6.69,4.82c0,2.85-2.98,4.87-7.21,4.87c-4.57,0-7.75-1.96-8.12-5.02
	c-0.05-0.37-0.05-0.8-0.05-0.8H96.1l0.01,0.59l0.02,0.44c0.42,6.67,6.38,10.88,15.52,10.88c9.74,0,15.73-4.54,15.73-11.88
	C127.4,35.15,124.04,31.96,116.24,30.38z"/>
</svg>
